<?xml version="1.0" encoding="UTF-8"?>
<svg xmlns="http://www.w3.org/2000/svg" xmlns:xlink="http://www.w3.org/1999/xlink" width="66.589pt" height="66.589pt" viewBox="0 0 66.589 66.589" version="1.1">
<g id="surface1">
<path style=" stroke:none;fill-rule:nonzero;fill:rgb(0%,0%,0%);fill-opacity:1;" d="M 35.410156 61.640625 C 35.410156 60.472656 34.460938 59.527344 33.296875 59.527344 C 32.128906 59.527344 31.179688 60.472656 31.179688 61.640625 C 31.179688 62.808594 32.128906 63.753906 33.296875 63.753906 C 34.460938 63.753906 35.410156 62.808594 35.410156 61.640625 Z M 35.410156 61.640625 "/>
<path style=" stroke:none;fill-rule:nonzero;fill:rgb(0%,0%,0%);fill-opacity:1;" d="M 63.753906 33.292969 C 63.753906 32.128906 62.808594 31.179688 61.640625 31.179688 C 60.472656 31.179688 59.527344 32.128906 59.527344 33.292969 C 59.527344 34.460938 60.472656 35.40625 61.640625 35.40625 C 62.808594 35.40625 63.753906 34.460938 63.753906 33.292969 Z M 63.753906 33.292969 "/>
<path style="fill:none;stroke-width:0.3985;stroke-linecap:butt;stroke-linejoin:miter;stroke:rgb(0%,0%,0%);stroke-opacity:1;stroke-miterlimit:10;" d="M 1.634687 1.637094 L 26.712812 26.711312 " transform="matrix(1,0,0,-1,33.295,61.641)"/>
<path style=" stroke:none;fill-rule:nonzero;fill:rgb(0%,0%,0%);fill-opacity:1;" d="M 63.753906 4.949219 C 63.753906 3.78125 62.808594 2.832031 61.640625 2.832031 C 60.472656 2.832031 59.527344 3.78125 59.527344 4.949219 C 59.527344 6.113281 60.472656 7.0625 61.640625 7.0625 C 62.808594 7.0625 63.753906 6.113281 63.753906 4.949219 Z M 63.753906 4.949219 "/>
<path style="fill:none;stroke-width:0.3985;stroke-linecap:butt;stroke-linejoin:miter;stroke:rgb(0%,0%,0%);stroke-opacity:1;stroke-miterlimit:10;" d="M 28.345625 30.660531 L 28.345625 54.379281 " transform="matrix(1,0,0,-1,33.295,61.641)"/>
<path style=" stroke:none;fill-rule:nonzero;fill:rgb(0%,0%,0%);fill-opacity:1;" d="M 35.410156 33.292969 C 35.410156 32.128906 34.460938 31.179688 33.296875 31.179688 C 32.128906 31.179688 31.179688 32.128906 31.179688 33.292969 C 31.179688 34.460938 32.128906 35.40625 33.296875 35.40625 C 34.460938 35.40625 35.410156 34.460938 35.410156 33.292969 Z M 35.410156 33.292969 "/>
<path style="fill:none;stroke-width:0.3985;stroke-linecap:butt;stroke-linejoin:miter;stroke:rgb(0%,0%,0%);stroke-opacity:1;stroke-miterlimit:10;" d="M 0.001875 2.312875 L 0.001875 26.035531 " transform="matrix(1,0,0,-1,33.295,61.641)"/>
<path style=" stroke:none;fill-rule:nonzero;fill:rgb(0%,0%,0%);fill-opacity:1;" d="M 49.582031 4.949219 C 49.582031 3.78125 48.636719 2.832031 47.46875 2.832031 C 46.300781 2.832031 45.355469 3.78125 45.355469 4.949219 C 45.355469 6.113281 46.300781 7.0625 47.46875 7.0625 C 48.636719 7.0625 49.582031 6.113281 49.582031 4.949219 Z M 49.582031 4.949219 "/>
<path style="fill:none;stroke-width:0.3985;stroke-linecap:butt;stroke-linejoin:miter;stroke:rgb(0%,0%,0%);stroke-opacity:1;stroke-miterlimit:10;" d="M 1.033125 30.414437 L 13.138594 54.625375 " transform="matrix(1,0,0,-1,33.295,61.641)"/>
<path style=" stroke:none;fill-rule:nonzero;fill:rgb(0%,0%,0%);fill-opacity:1;" d="M 21.234375 4.949219 C 21.234375 3.78125 20.289062 2.832031 19.121094 2.832031 C 17.953125 2.832031 17.007812 3.78125 17.007812 4.949219 C 17.007812 6.113281 17.953125 7.0625 19.121094 7.0625 C 20.289062 7.0625 21.234375 6.113281 21.234375 4.949219 Z M 21.234375 4.949219 "/>
<path style="fill:none;stroke-width:0.3985;stroke-linecap:butt;stroke-linejoin:miter;stroke:rgb(0%,0%,0%);stroke-opacity:1;stroke-miterlimit:10;" d="M -1.033281 30.414437 L -13.13875 54.625375 " transform="matrix(1,0,0,-1,33.295,61.641)"/>
<path style=" stroke:none;fill-rule:nonzero;fill:rgb(0%,0%,0%);fill-opacity:1;" d="M 7.0625 33.292969 C 7.0625 32.128906 6.117188 31.179688 4.949219 31.179688 C 3.78125 31.179688 2.835938 32.128906 2.835938 33.292969 C 2.835938 34.460938 3.78125 35.40625 4.949219 35.40625 C 6.117188 35.40625 7.0625 34.460938 7.0625 33.292969 Z M 7.0625 33.292969 "/>
<path style="fill:none;stroke-width:0.3985;stroke-linecap:butt;stroke-linejoin:miter;stroke:rgb(0%,0%,0%);stroke-opacity:1;stroke-miterlimit:10;" d="M -1.634844 1.637094 L -26.712969 26.711312 " transform="matrix(1,0,0,-1,33.295,61.641)"/>
</g>
</svg>
