<?xml version="1.0" encoding="UTF-8"?>
<svg xmlns="http://www.w3.org/2000/svg" xmlns:xlink="http://www.w3.org/1999/xlink" width="38.243pt" height="24.069pt" viewBox="0 0 38.243 24.069" version="1.1">
<g id="surface1">
<path style=" stroke:none;fill-rule:nonzero;fill:rgb(0%,0%,0%);fill-opacity:1;" d="M 21.238281 19.121094 C 21.238281 17.953125 20.292969 17.007812 19.125 17.007812 C 17.957031 17.007812 17.011719 17.953125 17.011719 19.121094 C 17.011719 20.289062 17.957031 21.234375 19.125 21.234375 C 20.292969 21.234375 21.238281 20.289062 21.238281 19.121094 Z M 21.238281 19.121094 "/>
<path style=" stroke:none;fill-rule:nonzero;fill:rgb(0%,0%,0%);fill-opacity:1;" d="M 35.410156 4.949219 C 35.410156 3.78125 34.464844 2.835938 33.296875 2.835938 C 32.128906 2.835938 31.183594 3.78125 31.183594 4.949219 C 31.183594 6.113281 32.128906 7.0625 33.296875 7.0625 C 34.464844 7.0625 35.410156 6.113281 35.410156 4.949219 Z M 35.410156 4.949219 "/>
<path style="fill:none;stroke-width:0.3985;stroke-linecap:butt;stroke-linejoin:miter;stroke:rgb(0%,0%,0%);stroke-opacity:1;stroke-miterlimit:10;" d="M 228.407813 1.636625 L 239.314063 12.538969 " transform="matrix(1,0,0,-1,-207.65,19.121)"/>
<path style=" stroke:none;fill-rule:nonzero;fill:rgb(0%,0%,0%);fill-opacity:1;" d="M 21.238281 4.949219 C 21.238281 3.78125 20.292969 2.835938 19.125 2.835938 C 17.957031 2.835938 17.011719 3.78125 17.011719 4.949219 C 17.011719 6.113281 17.957031 7.0625 19.125 7.0625 C 20.292969 7.0625 21.238281 6.113281 21.238281 4.949219 Z M 21.238281 4.949219 "/>
<path style="fill:none;stroke-width:0.3985;stroke-linecap:butt;stroke-linejoin:miter;stroke:rgb(0%,0%,0%);stroke-opacity:1;stroke-miterlimit:10;" d="M 226.775 2.312406 L 226.775 11.859281 " transform="matrix(1,0,0,-1,-207.65,19.121)"/>
<path style=" stroke:none;fill-rule:nonzero;fill:rgb(0%,0%,0%);fill-opacity:1;" d="M 7.066406 4.949219 C 7.066406 3.78125 6.117188 2.835938 4.949219 2.835938 C 3.785156 2.835938 2.835938 3.78125 2.835938 4.949219 C 2.835938 6.113281 3.785156 7.0625 4.949219 7.0625 C 6.117188 7.0625 7.066406 6.113281 7.066406 4.949219 Z M 7.066406 4.949219 "/>
<path style="fill:none;stroke-width:0.3985;stroke-linecap:butt;stroke-linejoin:miter;stroke:rgb(0%,0%,0%);stroke-opacity:1;stroke-miterlimit:10;" d="M 225.138281 1.636625 L 214.235938 12.538969 " transform="matrix(1,0,0,-1,-207.65,19.121)"/>
</g>
</svg>
