<?xml version="1.0" encoding="UTF-8"?>
<svg xmlns="http://www.w3.org/2000/svg" xmlns:xlink="http://www.w3.org/1999/xlink" width="9.896pt" height="52.416pt" viewBox="0 0 9.896 52.416" version="1.1">
<g id="surface1">
<path style=" stroke:none;fill-rule:nonzero;fill:rgb(0%,0%,0%);fill-opacity:1;" d="M 7.066406 47.46875 C 7.066406 46.300781 6.121094 45.355469 4.953125 45.355469 C 3.785156 45.355469 2.839844 46.300781 2.839844 47.46875 C 2.839844 48.636719 3.785156 49.582031 4.953125 49.582031 C 6.121094 49.582031 7.066406 48.636719 7.066406 47.46875 Z M 7.066406 47.46875 "/>
<path style=" stroke:none;fill-rule:nonzero;fill:rgb(0%,0%,0%);fill-opacity:1;" d="M 7.066406 33.292969 C 7.066406 32.128906 6.121094 31.179688 4.953125 31.179688 C 3.785156 31.179688 2.839844 32.128906 2.839844 33.292969 C 2.839844 34.460938 3.785156 35.40625 4.953125 35.40625 C 6.121094 35.40625 7.066406 34.460938 7.066406 33.292969 Z M 7.066406 33.292969 "/>
<path style="fill:none;stroke-width:0.3985;stroke-linecap:butt;stroke-linejoin:miter;stroke:rgb(0%,0%,0%);stroke-opacity:1;stroke-miterlimit:10;" d="M 396.855125 2.31175 L 396.855125 11.862531 " transform="matrix(1,0,0,-1,-391.902,47.468)"/>
<path style=" stroke:none;fill-rule:nonzero;fill:rgb(0%,0%,0%);fill-opacity:1;" d="M 7.066406 19.121094 C 7.066406 17.953125 6.121094 17.007812 4.953125 17.007812 C 3.785156 17.007812 2.839844 17.953125 2.839844 19.121094 C 2.839844 20.289062 3.785156 21.234375 4.953125 21.234375 C 6.121094 21.234375 7.066406 20.289062 7.066406 19.121094 Z M 7.066406 19.121094 "/>
<path style="fill:none;stroke-width:0.3985;stroke-linecap:butt;stroke-linejoin:miter;stroke:rgb(0%,0%,0%);stroke-opacity:1;stroke-miterlimit:10;" d="M 396.855125 16.487531 L 396.855125 26.034406 " transform="matrix(1,0,0,-1,-391.902,47.468)"/>
<path style=" stroke:none;fill-rule:nonzero;fill:rgb(0%,0%,0%);fill-opacity:1;" d="M 7.066406 4.949219 C 7.066406 3.78125 6.121094 2.835938 4.953125 2.835938 C 3.785156 2.835938 2.839844 3.78125 2.839844 4.949219 C 2.839844 6.113281 3.785156 7.0625 4.953125 7.0625 C 6.121094 7.0625 7.066406 6.113281 7.066406 4.949219 Z M 7.066406 4.949219 "/>
<path style="fill:none;stroke-width:0.3985;stroke-linecap:butt;stroke-linejoin:miter;stroke:rgb(0%,0%,0%);stroke-opacity:1;stroke-miterlimit:10;" d="M 396.855125 30.659406 L 396.855125 40.206281 " transform="matrix(1,0,0,-1,-391.902,47.468)"/>
</g>
</svg>
