<?xml version="1.0" encoding="UTF-8"?>
<svg xmlns="http://www.w3.org/2000/svg" xmlns:xlink="http://www.w3.org/1999/xlink" width="9.896pt" height="38.243pt" viewBox="0 0 9.896 38.243" version="1.1">
<g id="surface1">
<path style=" stroke:none;fill-rule:nonzero;fill:rgb(0%,0%,0%);fill-opacity:1;" d="M 7.0625 33.296875 C 7.0625 32.128906 6.117188 31.179688 4.949219 31.179688 C 3.78125 31.179688 2.835938 32.128906 2.835938 33.296875 C 2.835938 34.460938 3.78125 35.410156 4.949219 35.410156 C 6.117188 35.410156 7.0625 34.460938 7.0625 33.296875 Z M 7.0625 33.296875 "/>
<path style=" stroke:none;fill-rule:nonzero;fill:rgb(0%,0%,0%);fill-opacity:1;" d="M 7.0625 19.121094 C 7.0625 17.953125 6.117188 17.007812 4.949219 17.007812 C 3.78125 17.007812 2.835938 17.953125 2.835938 19.121094 C 2.835938 20.289062 3.78125 21.234375 4.949219 21.234375 C 6.117188 21.234375 7.0625 20.289062 7.0625 19.121094 Z M 7.0625 19.121094 "/>
<path style="fill:none;stroke-width:0.3985;stroke-linecap:butt;stroke-linejoin:miter;stroke:rgb(0%,0%,0%);stroke-opacity:1;stroke-miterlimit:10;" d="M 170.080219 2.314531 L 170.080219 11.861406 " transform="matrix(1,0,0,-1,-165.131,33.295)"/>
<path style=" stroke:none;fill-rule:nonzero;fill:rgb(0%,0%,0%);fill-opacity:1;" d="M 7.0625 4.949219 C 7.0625 3.78125 6.117188 2.835938 4.949219 2.835938 C 3.78125 2.835938 2.835938 3.78125 2.835938 4.949219 C 2.835938 6.117188 3.78125 7.0625 4.949219 7.0625 C 6.117188 7.0625 7.0625 6.117188 7.0625 4.949219 Z M 7.0625 4.949219 "/>
<path style="fill:none;stroke-width:0.3985;stroke-linecap:butt;stroke-linejoin:miter;stroke:rgb(0%,0%,0%);stroke-opacity:1;stroke-miterlimit:10;" d="M 170.080219 16.486406 L 170.080219 26.033281 " transform="matrix(1,0,0,-1,-165.131,33.295)"/>
</g>
</svg>
