<?xml version="1.0" encoding="UTF-8"?>
<svg xmlns="http://www.w3.org/2000/svg" xmlns:xlink="http://www.w3.org/1999/xlink" width="24.069pt" height="24.069pt" viewBox="0 0 24.069 24.069" version="1.1">
<g id="surface1">
<path style=" stroke:none;fill-rule:nonzero;fill:rgb(0%,0%,0%);fill-opacity:1;" d="M 14.148438 19.121094 C 14.148438 17.953125 13.203125 17.007812 12.035156 17.007812 C 10.867188 17.007812 9.921875 17.953125 9.921875 19.121094 C 9.921875 20.289062 10.867188 21.234375 12.035156 21.234375 C 13.203125 21.234375 14.148438 20.289062 14.148438 19.121094 Z M 14.148438 19.121094 "/>
<path style=" stroke:none;fill-rule:nonzero;fill:rgb(0%,0%,0%);fill-opacity:1;" d="M 21.238281 4.949219 C 21.238281 3.78125 20.289062 2.835938 19.121094 2.835938 C 17.957031 2.835938 17.007812 3.78125 17.007812 4.949219 C 17.007812 6.113281 17.957031 7.0625 19.121094 7.0625 C 20.289062 7.0625 21.238281 6.113281 21.238281 4.949219 Z M 21.238281 4.949219 "/>
<path style="fill:none;stroke-width:0.3985;stroke-linecap:butt;stroke-linejoin:miter;stroke:rgb(0%,0%,0%);stroke-opacity:1;stroke-miterlimit:10;" d="M 114.421312 2.070219 L 119.440844 12.105375 " transform="matrix(1,0,0,-1,-101.351,19.121)"/>
<path style=" stroke:none;fill-rule:nonzero;fill:rgb(0%,0%,0%);fill-opacity:1;" d="M 7.0625 4.949219 C 7.0625 3.78125 6.117188 2.835938 4.949219 2.835938 C 3.78125 2.835938 2.835938 3.78125 2.835938 4.949219 C 2.835938 6.113281 3.78125 7.0625 4.949219 7.0625 C 6.117188 7.0625 7.0625 6.113281 7.0625 4.949219 Z M 7.0625 4.949219 "/>
<path style="fill:none;stroke-width:0.3985;stroke-linecap:butt;stroke-linejoin:miter;stroke:rgb(0%,0%,0%);stroke-opacity:1;stroke-miterlimit:10;" d="M 112.354906 2.070219 L 107.335375 12.105375 " transform="matrix(1,0,0,-1,-101.351,19.121)"/>
</g>
</svg>
