<?xml version="1.0" encoding="UTF-8"?>
<svg xmlns="http://www.w3.org/2000/svg" xmlns:xlink="http://www.w3.org/1999/xlink" width="66.589pt" height="38.243pt" viewBox="0 0 66.589 38.243" version="1.1">
<g id="surface1">
<path style=" stroke:none;fill-rule:nonzero;fill:rgb(0%,0%,0%);fill-opacity:1;" d="M 7.0625 33.296875 C 7.0625 32.128906 6.113281 31.179688 4.949219 31.179688 C 3.78125 31.179688 2.835938 32.128906 2.835938 33.296875 C 2.835938 34.460938 3.78125 35.410156 4.949219 35.410156 C 6.113281 35.410156 7.0625 34.460938 7.0625 33.296875 Z M 7.0625 33.296875 "/>
<path style=" stroke:none;fill-rule:nonzero;fill:rgb(0%,0%,0%);fill-opacity:1;" d="M 63.753906 33.296875 C 63.753906 32.128906 62.808594 31.179688 61.640625 31.179688 C 60.472656 31.179688 59.527344 32.128906 59.527344 33.296875 C 59.527344 34.460938 60.472656 35.410156 61.640625 35.410156 C 62.808594 35.410156 63.753906 34.460938 63.753906 33.296875 Z M 63.753906 33.296875 "/>
<path style=" stroke:none;fill-rule:nonzero;fill:rgb(0%,0%,0%);fill-opacity:1;" d="M 63.753906 4.949219 C 63.753906 3.78125 62.808594 2.835938 61.640625 2.835938 C 60.472656 2.835938 59.527344 3.78125 59.527344 4.949219 C 59.527344 6.117188 60.472656 7.0625 61.640625 7.0625 C 62.808594 7.0625 63.753906 6.117188 63.753906 4.949219 Z M 63.753906 4.949219 "/>
<path style="fill:none;stroke-width:0.3985;stroke-linecap:butt;stroke-linejoin:miter;stroke:rgb(0%,0%,0%);stroke-opacity:1;stroke-miterlimit:10;" d="M 56.692625 2.314531 L 56.692625 26.033281 " transform="matrix(1,0,0,-1,4.948,33.295)"/>
</g>
</svg>
