<?xml version="1.0" encoding="UTF-8"?>
<svg xmlns="http://www.w3.org/2000/svg" xmlns:xlink="http://www.w3.org/1999/xlink" width="24.069pt" height="38.243pt" viewBox="0 0 24.069 38.243" version="1.1">
<g id="surface1">
<path style=" stroke:none;fill-rule:nonzero;fill:rgb(0%,0%,0%);fill-opacity:1;" d="M 14.152344 33.296875 C 14.152344 32.128906 13.207031 31.179688 12.039062 31.179688 C 10.871094 31.179688 9.925781 32.128906 9.925781 33.296875 C 9.925781 34.460938 10.871094 35.410156 12.039062 35.410156 C 13.207031 35.410156 14.152344 34.460938 14.152344 33.296875 Z M 14.152344 33.296875 "/>
<path style=" stroke:none;fill-rule:nonzero;fill:rgb(0%,0%,0%);fill-opacity:1;" d="M 21.238281 19.121094 C 21.238281 17.953125 20.292969 17.007812 19.125 17.007812 C 17.957031 17.007812 17.011719 17.953125 17.011719 19.121094 C 17.011719 20.289062 17.957031 21.234375 19.125 21.234375 C 20.292969 21.234375 21.238281 20.289062 21.238281 19.121094 Z M 21.238281 19.121094 "/>
<path style="fill:none;stroke-width:0.3985;stroke-linecap:butt;stroke-linejoin:miter;stroke:rgb(0%,0%,0%);stroke-opacity:1;stroke-miterlimit:10;" d="M 341.197219 2.068438 L 346.212844 12.103594 " transform="matrix(1,0,0,-1,-328.123,33.295)"/>
<path style=" stroke:none;fill-rule:nonzero;fill:rgb(0%,0%,0%);fill-opacity:1;" d="M 21.238281 4.949219 C 21.238281 3.78125 20.292969 2.835938 19.125 2.835938 C 17.957031 2.835938 17.011719 3.78125 17.011719 4.949219 C 17.011719 6.117188 17.957031 7.0625 19.125 7.0625 C 20.292969 7.0625 21.238281 6.117188 21.238281 4.949219 Z M 21.238281 4.949219 "/>
<path style="fill:none;stroke-width:0.3985;stroke-linecap:butt;stroke-linejoin:miter;stroke:rgb(0%,0%,0%);stroke-opacity:1;stroke-miterlimit:10;" d="M 347.248 16.486406 L 347.248 26.033281 " transform="matrix(1,0,0,-1,-328.123,33.295)"/>
<path style=" stroke:none;fill-rule:nonzero;fill:rgb(0%,0%,0%);fill-opacity:1;" d="M 7.066406 19.121094 C 7.066406 17.953125 6.121094 17.007812 4.953125 17.007812 C 3.785156 17.007812 2.839844 17.953125 2.839844 19.121094 C 2.839844 20.289062 3.785156 21.234375 4.953125 21.234375 C 6.121094 21.234375 7.066406 20.289062 7.066406 19.121094 Z M 7.066406 19.121094 "/>
<path style="fill:none;stroke-width:0.3985;stroke-linecap:butt;stroke-linejoin:miter;stroke:rgb(0%,0%,0%);stroke-opacity:1;stroke-miterlimit:10;" d="M 339.126906 2.068438 L 334.107375 12.103594 " transform="matrix(1,0,0,-1,-328.123,33.295)"/>
</g>
</svg>
