<?xml version="1.0" encoding="UTF-8"?>
<svg xmlns="http://www.w3.org/2000/svg" xmlns:xlink="http://www.w3.org/1999/xlink" width="95.077pt" height="94.935pt" viewBox="0 0 95.077 94.935" version="1.1">
<defs>
<clipPath id="clip1">
  <path d="M 75 29 L 95.078125 29 L 95.078125 66 L 75 66 Z M 75 29 "/>
</clipPath>
</defs>
<g id="surface1">
<path style=" stroke:none;fill-rule:nonzero;fill:rgb(0%,0%,0%);fill-opacity:1;" d="M 54.402344 89.988281 C 54.402344 88.820312 53.453125 87.875 52.285156 87.875 C 51.121094 87.875 50.171875 88.820312 50.171875 89.988281 C 50.171875 91.152344 51.121094 92.101562 52.285156 92.101562 C 53.453125 92.101562 54.402344 91.152344 54.402344 89.988281 Z M 54.402344 89.988281 "/>
<path style=" stroke:none;fill-rule:nonzero;fill:rgb(0%,0%,0%);fill-opacity:1;" d="M 82.746094 61.640625 C 82.746094 60.472656 81.800781 59.527344 80.632812 59.527344 C 79.464844 59.527344 78.519531 60.472656 78.519531 61.640625 C 78.519531 62.808594 79.464844 63.753906 80.632812 63.753906 C 81.800781 63.753906 82.746094 62.808594 82.746094 61.640625 Z M 82.746094 61.640625 "/>
<path style="fill:none;stroke-width:0.3985;stroke-linecap:butt;stroke-linejoin:miter;stroke:rgb(0%,0%,0%);stroke-opacity:1;stroke-miterlimit:10;" d="M 1.634875 1.635437 L 26.713 26.709656 " transform="matrix(1,0,0,-1,52.287,89.987)"/>
<path style=" stroke:none;fill-rule:nonzero;fill:rgb(0%,0%,0%);fill-opacity:1;" d="M 92.242188 33.292969 C 92.242188 32.125 91.296875 31.179688 90.128906 31.179688 C 88.960938 31.179688 88.015625 32.125 88.015625 33.292969 C 88.015625 34.460938 88.960938 35.40625 90.128906 35.40625 C 91.296875 35.40625 92.242188 34.460938 92.242188 33.292969 Z M 92.242188 33.292969 "/>
<g clip-path="url(#clip1)" clip-rule="nonzero">
<path style="fill:none;stroke-width:0.3985;stroke-linecap:butt;stroke-linejoin:miter;stroke:rgb(0%,0%,0%);stroke-opacity:1;stroke-miterlimit:10;" d="M 29.080188 30.537781 L 37.107531 54.502625 " transform="matrix(1,0,0,-1,52.287,89.987)"/>
</g>
<path style=" stroke:none;fill-rule:nonzero;fill:rgb(0%,0%,0%);fill-opacity:1;" d="M 73.25 33.292969 C 73.25 32.125 72.304688 31.179688 71.136719 31.179688 C 69.96875 31.179688 69.023438 32.125 69.023438 33.292969 C 69.023438 34.460938 69.96875 35.40625 71.136719 35.40625 C 72.304688 35.40625 73.25 34.460938 73.25 33.292969 Z M 73.25 33.292969 "/>
<path style="fill:none;stroke-width:0.3985;stroke-linecap:butt;stroke-linejoin:miter;stroke:rgb(0%,0%,0%);stroke-opacity:1;stroke-miterlimit:10;" d="M 27.611438 30.537781 L 19.584094 54.502625 " transform="matrix(1,0,0,-1,52.287,89.987)"/>
<path style=" stroke:none;fill-rule:nonzero;fill:rgb(0%,0%,0%);fill-opacity:1;" d="M 82.746094 4.945312 C 82.746094 3.78125 81.800781 2.832031 80.632812 2.832031 C 79.464844 2.832031 78.519531 3.78125 78.519531 4.945312 C 78.519531 6.113281 79.464844 7.058594 80.632812 7.058594 C 81.800781 7.058594 82.746094 6.113281 82.746094 4.945312 Z M 82.746094 4.945312 "/>
<path style="fill:none;stroke-width:0.3985;stroke-linecap:butt;stroke-linejoin:miter;stroke:rgb(0%,0%,0%);stroke-opacity:1;stroke-miterlimit:10;" d="M 19.584094 58.885437 L 27.611438 82.846375 " transform="matrix(1,0,0,-1,52.287,89.987)"/>
<path style=" stroke:none;fill-rule:nonzero;fill:rgb(0%,0%,0%);fill-opacity:1;" d="M 63.753906 4.945312 C 63.753906 3.78125 62.808594 2.832031 61.640625 2.832031 C 60.472656 2.832031 59.527344 3.78125 59.527344 4.945312 C 59.527344 6.113281 60.472656 7.058594 61.640625 7.058594 C 62.808594 7.058594 63.753906 6.113281 63.753906 4.945312 Z M 63.753906 4.945312 "/>
<path style="fill:none;stroke-width:0.3985;stroke-linecap:butt;stroke-linejoin:miter;stroke:rgb(0%,0%,0%);stroke-opacity:1;stroke-miterlimit:10;" d="M 18.115344 58.885437 L 10.088 82.846375 " transform="matrix(1,0,0,-1,52.287,89.987)"/>
<path style=" stroke:none;fill-rule:nonzero;fill:rgb(0%,0%,0%);fill-opacity:1;" d="M 26.054688 61.640625 C 26.054688 60.472656 25.105469 59.527344 23.941406 59.527344 C 22.773438 59.527344 21.828125 60.472656 21.828125 61.640625 C 21.828125 62.808594 22.773438 63.753906 23.941406 63.753906 C 25.105469 63.753906 26.054688 62.808594 26.054688 61.640625 Z M 26.054688 61.640625 "/>
<path style="fill:none;stroke-width:0.3985;stroke-linecap:butt;stroke-linejoin:miter;stroke:rgb(0%,0%,0%);stroke-opacity:1;stroke-miterlimit:10;" d="M -1.634656 1.635437 L -26.712781 26.709656 " transform="matrix(1,0,0,-1,52.287,89.987)"/>
<path style=" stroke:none;fill-rule:nonzero;fill:rgb(0%,0%,0%);fill-opacity:1;" d="M 45.046875 33.292969 C 45.046875 32.125 44.101562 31.179688 42.933594 31.179688 C 41.765625 31.179688 40.820312 32.125 40.820312 33.292969 C 40.820312 34.460938 41.765625 35.40625 42.933594 35.40625 C 44.101562 35.40625 45.046875 34.460938 45.046875 33.292969 Z M 45.046875 33.292969 "/>
<path style="fill:none;stroke-width:0.3985;stroke-linecap:butt;stroke-linejoin:miter;stroke:rgb(0%,0%,0%);stroke-opacity:1;stroke-miterlimit:10;" d="M -27.060437 30.26825 L -10.642469 54.772156 " transform="matrix(1,0,0,-1,52.287,89.987)"/>
<path style=" stroke:none;fill-rule:nonzero;fill:rgb(0%,0%,0%);fill-opacity:1;" d="M 26.054688 33.292969 C 26.054688 32.125 25.105469 31.179688 23.941406 31.179688 C 22.773438 31.179688 21.828125 32.125 21.828125 33.292969 C 21.828125 34.460938 22.773438 35.40625 23.941406 35.40625 C 25.105469 35.40625 26.054688 34.460938 26.054688 33.292969 Z M 26.054688 33.292969 "/>
<path style="fill:none;stroke-width:0.3985;stroke-linecap:butt;stroke-linejoin:miter;stroke:rgb(0%,0%,0%);stroke-opacity:1;stroke-miterlimit:10;" d="M -28.345594 30.658875 L -28.345594 54.381531 " transform="matrix(1,0,0,-1,52.287,89.987)"/>
<path style=" stroke:none;fill-rule:nonzero;fill:rgb(0%,0%,0%);fill-opacity:1;" d="M 7.0625 33.292969 C 7.0625 32.125 6.113281 31.179688 4.949219 31.179688 C 3.78125 31.179688 2.835938 32.125 2.835938 33.292969 C 2.835938 34.460938 3.78125 35.40625 4.949219 35.40625 C 6.113281 35.40625 7.0625 34.460938 7.0625 33.292969 Z M 7.0625 33.292969 "/>
<path style="fill:none;stroke-width:0.3985;stroke-linecap:butt;stroke-linejoin:miter;stroke:rgb(0%,0%,0%);stroke-opacity:1;stroke-miterlimit:10;" d="M -29.634656 30.26825 L -46.052625 54.772156 " transform="matrix(1,0,0,-1,52.287,89.987)"/>
</g>
</svg>
