<?xml version="1.0" encoding="UTF-8"?>
<svg xmlns="http://www.w3.org/2000/svg" xmlns:xlink="http://www.w3.org/1999/xlink" width="24.069pt" height="38.243pt" viewBox="0 0 24.069 38.243" version="1.1">
<g id="surface1">
<path style=" stroke:none;fill-rule:nonzero;fill:rgb(0%,0%,0%);fill-opacity:1;" d="M 14.152344 33.296875 C 14.152344 32.128906 13.207031 31.179688 12.039062 31.179688 C 10.871094 31.179688 9.925781 32.128906 9.925781 33.296875 C 9.925781 34.460938 10.871094 35.410156 12.039062 35.410156 C 13.207031 35.410156 14.152344 34.460938 14.152344 33.296875 Z M 14.152344 33.296875 "/>
<path style=" stroke:none;fill-rule:nonzero;fill:rgb(0%,0%,0%);fill-opacity:1;" d="M 14.152344 19.121094 C 14.152344 17.953125 13.207031 17.007812 12.039062 17.007812 C 10.871094 17.007812 9.925781 17.953125 9.925781 19.121094 C 9.925781 20.289062 10.871094 21.234375 12.039062 21.234375 C 13.207031 21.234375 14.152344 20.289062 14.152344 19.121094 Z M 14.152344 19.121094 "/>
<path style="fill:none;stroke-width:0.3985;stroke-linecap:butt;stroke-linejoin:miter;stroke:rgb(0%,0%,0%);stroke-opacity:1;stroke-miterlimit:10;" d="M 283.469062 2.314531 L 283.469062 11.861406 " transform="matrix(1,0,0,-1,-271.43,33.295)"/>
<path style=" stroke:none;fill-rule:nonzero;fill:rgb(0%,0%,0%);fill-opacity:1;" d="M 21.238281 4.949219 C 21.238281 3.78125 20.292969 2.835938 19.125 2.835938 C 17.957031 2.835938 17.011719 3.78125 17.011719 4.949219 C 17.011719 6.117188 17.957031 7.0625 19.125 7.0625 C 20.292969 7.0625 21.238281 6.117188 21.238281 4.949219 Z M 21.238281 4.949219 "/>
<path style="fill:none;stroke-width:0.3985;stroke-linecap:butt;stroke-linejoin:miter;stroke:rgb(0%,0%,0%);stroke-opacity:1;stroke-miterlimit:10;" d="M 284.500312 16.240313 L 289.519844 26.279375 " transform="matrix(1,0,0,-1,-271.43,33.295)"/>
<path style=" stroke:none;fill-rule:nonzero;fill:rgb(0%,0%,0%);fill-opacity:1;" d="M 7.066406 4.949219 C 7.066406 3.78125 6.117188 2.835938 4.953125 2.835938 C 3.785156 2.835938 2.839844 3.78125 2.839844 4.949219 C 2.839844 6.117188 3.785156 7.0625 4.953125 7.0625 C 6.117188 7.0625 7.066406 6.117188 7.066406 4.949219 Z M 7.066406 4.949219 "/>
<path style="fill:none;stroke-width:0.3985;stroke-linecap:butt;stroke-linejoin:miter;stroke:rgb(0%,0%,0%);stroke-opacity:1;stroke-miterlimit:10;" d="M 282.433906 16.240313 L 277.414375 26.279375 " transform="matrix(1,0,0,-1,-271.43,33.295)"/>
</g>
</svg>
