<?xml version="1.0" encoding="UTF-8"?>
<svg xmlns="http://www.w3.org/2000/svg" xmlns:xlink="http://www.w3.org/1999/xlink" width="66.589pt" height="58.994pt" viewBox="0 0 66.589 58.994" version="1.1">
<defs>
<clipPath id="clip1">
  <path d="M 1 0 L 66 0 L 66 58.992188 L 1 58.992188 Z M 1 0 "/>
</clipPath>
</defs>
<g id="surface1">
<path style=" stroke:none;fill-rule:nonzero;fill:rgb(0%,0%,0%);fill-opacity:1;" d="M 63.753906 29.496094 C 63.753906 28.328125 62.808594 27.382812 61.640625 27.382812 C 60.472656 27.382812 59.527344 28.328125 59.527344 29.496094 C 59.527344 30.664062 60.472656 31.609375 61.640625 31.609375 C 62.808594 31.609375 63.753906 30.664062 63.753906 29.496094 Z M 63.753906 29.496094 "/>
<path style=" stroke:none;fill-rule:nonzero;fill:rgb(0%,0%,0%);fill-opacity:1;" d="M 49.582031 4.949219 C 49.582031 3.78125 48.632812 2.835938 47.46875 2.835938 C 46.300781 2.835938 45.355469 3.78125 45.355469 4.949219 C 45.355469 6.113281 46.300781 7.0625 47.46875 7.0625 C 48.632812 7.0625 49.582031 6.113281 49.582031 4.949219 Z M 49.582031 4.949219 "/>
<path style=" stroke:none;fill-rule:nonzero;fill:rgb(0%,0%,0%);fill-opacity:1;" d="M 21.234375 4.949219 C 21.234375 3.78125 20.289062 2.835938 19.121094 2.835938 C 17.953125 2.835938 17.007812 3.78125 17.007812 4.949219 C 17.007812 6.113281 17.953125 7.0625 19.121094 7.0625 C 20.289062 7.0625 21.234375 6.113281 21.234375 4.949219 Z M 21.234375 4.949219 "/>
<path style=" stroke:none;fill-rule:nonzero;fill:rgb(0%,0%,0%);fill-opacity:1;" d="M 7.0625 29.496094 C 7.0625 28.328125 6.113281 27.382812 4.945312 27.382812 C 3.78125 27.382812 2.832031 28.328125 2.832031 29.496094 C 2.832031 30.664062 3.78125 31.609375 4.945312 31.609375 C 6.113281 31.609375 7.0625 30.664062 7.0625 29.496094 Z M 7.0625 29.496094 "/>
<path style=" stroke:none;fill-rule:nonzero;fill:rgb(0%,0%,0%);fill-opacity:1;" d="M 21.234375 54.046875 C 21.234375 52.878906 20.289062 51.933594 19.121094 51.933594 C 17.953125 51.933594 17.007812 52.878906 17.007812 54.046875 C 17.007812 55.214844 17.953125 56.160156 19.121094 56.160156 C 20.289062 56.160156 21.234375 55.214844 21.234375 54.046875 Z M 21.234375 54.046875 "/>
<path style=" stroke:none;fill-rule:nonzero;fill:rgb(0%,0%,0%);fill-opacity:1;" d="M 49.582031 54.046875 C 49.582031 52.878906 48.632812 51.933594 47.46875 51.933594 C 46.300781 51.933594 45.355469 52.878906 45.355469 54.046875 C 45.355469 55.214844 46.300781 56.160156 47.46875 56.160156 C 48.632812 56.160156 49.582031 55.214844 49.582031 54.046875 Z M 49.582031 54.046875 "/>
<g clip-path="url(#clip1)" clip-rule="nonzero">
<path style="fill:none;stroke-width:0.3985;stroke-linecap:butt;stroke-linejoin:miter;stroke:rgb(0%,0%,0%);stroke-opacity:1;stroke-miterlimit:10;" d="M 26.034125 0.00090625 L -26.032281 0.00090625 M 11.86225 24.547781 L -11.860406 24.547781 M 13.0185 22.547781 L -13.016656 -22.545969 M -12.169 -23.393625 L 26.342719 -1.155344 M -26.344781 -1.155344 L 12.170844 -23.393625 " transform="matrix(1,0,0,-1,33.294,29.497)"/>
</g>
</g>
</svg>
